<svg xmlns="http://www.w3.org/2000/svg" xmlns:svg="http://www.w3.org/2000/svg" id="Layer_1" width="64" height="64" x="0" y="0" enable-background="new 11 -7 64 64" version="1.0" viewBox="11 -7 64 64" xml:space="preserve"><metadata id="metadata15"/><g id="g3" transform="translate(5.5,-3.5)"><circle id="circle5" cx="37.564" cy="28.288" r="29.013" d="m 66.577,28.288 c 0,16.023438 -12.989563,29.013001 -29.013001,29.013001 -16.023438,0 -29.0130003,-12.989563 -29.0130003,-29.013001 0,-16.023438 12.9895623,-29.01300038 29.0130003,-29.01300038 C 53.587437,-0.72500038 66.577,12.264562 66.577,28.288 z" style="fill:#fff"/><g id="g7"><path id="path9" d="m 37.443,-3.5 c 8.951,0 16.531,3.105 22.742,9.315 6.208,6.172 9.315,13.733 9.315,22.685 0,8.954 -3.049,16.457 -9.145,22.514 C 53.918,57.338 46.279,60.5 37.443,60.5 28.794,60.5 21.29,57.357 14.929,51.07 8.644,44.786 5.5,37.264 5.5,28.501 5.5,19.778 8.644,12.216 14.929,5.816 21.138,-0.395 28.643,-3.5 37.443,-3.5 z m 0.114,5.772 c -7.276,0 -13.428,2.572 -18.457,7.715 -5.22,5.296 -7.829,11.467 -7.829,18.513 0,7.125 2.59,13.257 7.77,18.4 5.181,5.182 11.352,7.771 18.514,7.771 7.123,0 13.334,-2.608 18.629,-7.828 5.029,-4.876 7.543,-10.989 7.543,-18.343 0,-7.313 -2.553,-13.485 -7.656,-18.513 C 51.004,4.842 44.832,2.272 37.557,2.272 z m 12.058,18.684 v 5.486 H 26.358 v -5.486 h 23.257 z m 0,10.287 v 5.483 H 26.358 v -5.483 h 23.257 z"/></g></g></svg>